<svg width="431" height="87" viewBox="0 0 431 87" fill="none" xmlns="http://www.w3.org/2000/svg">
<path d="M31.4 86.2C48.2 86.2 56 74.2 56 74.2L45.8 64C45.8 64 40.4 71.2 31.4 71.2C23 71.2 16.4 64.6 16.4 55.6C16.4 46.6 23 40 31.4 40C40.4 40 45.8 47.2 45.8 47.2L56 37C56 37 48.2 25 31.4 25C14 25 0.2 38.8 0.2 55.6C0.2 72.4 14 86.2 31.4 86.2ZM86.5719 86.2C103.972 86.2 117.772 72.4 117.772 55.6C117.772 38.8 103.972 25 86.5719 25C69.1719 25 55.3719 38.8 55.3719 55.6C55.3719 72.4 69.1719 86.2 86.5719 86.2ZM86.5719 71.2C78.1719 71.2 71.5719 64.6 71.5719 55.6C71.5719 46.6 78.1719 40 86.5719 40C94.9719 40 101.572 46.6 101.572 55.6C101.572 64.6 94.9719 71.2 86.5719 71.2ZM142.953 86.2C159.153 86.2 167.553 77.8 167.553 67.6C167.553 48.4 137.553 49.6 137.553 43C137.553 41.2 139.353 39.4 143.553 39.4C151.953 39.4 156.753 44.2 156.753 44.2L166.353 34C166.353 34 158.553 25 143.553 25C128.553 25 120.153 33.4 120.153 43C120.153 62.2 150.153 61 150.153 67.6C150.153 70 148.353 71.8 142.953 71.8C133.353 71.8 127.353 65.2 127.353 65.2L117.753 75.4C117.753 75.4 126.753 86.2 142.953 86.2ZM191.563 86.2C207.763 86.2 216.163 77.8 216.163 67.6C216.163 48.4 186.163 49.6 186.163 43C186.163 41.2 187.963 39.4 192.163 39.4C200.563 39.4 205.363 44.2 205.363 44.2L214.963 34C214.963 34 207.163 25 192.163 25C177.163 25 168.763 33.4 168.763 43C168.763 62.2 198.763 61 198.763 67.6C198.763 70 196.963 71.8 191.563 71.8C181.963 71.8 175.963 65.2 175.963 65.2L166.363 75.4C166.363 75.4 175.363 86.2 191.563 86.2ZM220.972 85H237.172V26.2H220.972V85ZM229.012 18.4C234.172 18.4 238.372 14.2 238.372 9.39999C238.372 4.6 234.172 0.399995 229.132 0.399995C223.972 0.399995 219.772 4.6 219.772 9.39999C219.772 14.2 223.972 18.4 229.012 18.4ZM269.53 86.2C282.13 86.2 288.13 76.6 288.13 76.6H288.73V85H304.93V0.999994H288.73V34.6H288.13C288.13 34.6 282.13 25 269.53 25C255.73 25 243.13 37.6 243.13 55.6C243.13 73.6 255.73 86.2 269.53 86.2ZM274.33 71.2C265.93 71.2 259.33 64.6 259.33 55.6C259.33 46.6 265.93 40 274.33 40C282.73 40 289.33 46.6 289.33 55.6C289.33 64.6 282.73 71.2 274.33 71.2ZM330.144 86.2C341.544 86.2 347.544 77.8 347.544 77.8H348.144V85C351.744 85 364.344 85 364.344 85V48.4C364.344 35.2 354.144 25 339.144 25C323.544 25 315.144 36.4 315.144 36.4L324.744 46C324.744 46 329.544 39.4 337.944 39.4C343.944 39.4 347.544 43 348.144 47.2L329.544 50.56C318.744 52.48 312.144 59.8 312.144 69.4C312.144 79 319.344 86.2 330.144 86.2ZM335.544 73C330.744 73 328.344 70.6 328.344 67C328.344 64 330.744 61.72 334.944 61L348.144 58.6V59.8C348.144 67.6 342.744 73 335.544 73ZM401.548 86.2C417.748 86.2 426.748 76.6 426.748 76.6L418.348 65.2C418.348 65.2 412.948 71.8 402.748 71.8C393.748 71.8 388.948 67 387.148 61.6H429.748C429.748 61.6 430.348 58.6 430.348 54.4C430.348 38.2 417.148 25 400.948 25C384.148 25 370.348 38.8 370.348 55.6C370.348 72.4 384.148 86.2 401.548 86.2ZM387.148 49.6C388.948 44.2 393.748 39.4 400.348 39.4C406.948 39.4 411.748 44.2 413.548 49.6H387.148Z" fill="white"/>
</svg>
